<svg width="18" height="18" viewBox="0 0 18 18" fill="none" xmlns="http://www.w3.org/2000/svg">
    <path fill-rule="evenodd" clip-rule="evenodd"
        d="M7.73598 1.27155C7.82626 1.06841 8.02771 0.9375 8.25 0.9375C8.99592 0.9375 9.71129 1.23382 10.2387 1.76126C10.7662 2.28871 11.0625 3.00408 11.0625 3.75V6.1875H14.7421C15.0399 6.18462 15.3348 6.24628 15.6065 6.36823C15.8793 6.49065 16.1222 6.67092 16.3184 6.89654C16.5145 7.12215 16.6593 7.38773 16.7427 7.67486C16.8261 7.96199 16.846 8.26381 16.8011 8.55941L15.7661 15.3093V15.3093C15.6915 15.8011 15.4417 16.2495 15.0627 16.5716C14.6846 16.893 14.2033 17.0673 13.7071 17.0625H3C2.45299 17.0625 1.92839 16.8452 1.54159 16.4584C1.1548 16.0716 0.9375 15.547 0.9375 15V9.75C0.9375 9.20299 1.1548 8.67839 1.54159 8.29159C1.92839 7.9048 2.45299 7.6875 3 7.6875H4.88445L7.73598 1.27155ZM5.8125 8.36937L8.59931 2.09904C8.91658 2.16618 9.21043 2.32394 9.44324 2.55676C9.75971 2.87323 9.9375 3.30245 9.9375 3.75V6.75C9.9375 7.06066 10.1893 7.3125 10.5 7.3125H14.745L14.7514 7.31246C14.8873 7.31093 15.0219 7.33895 15.1459 7.3946C15.2698 7.45024 15.3803 7.53218 15.4694 7.63474C15.5586 7.73729 15.6244 7.85801 15.6623 7.98852C15.7002 8.11895 15.7093 8.25605 15.6889 8.39033V8.39033L14.6539 15.1407C14.62 15.3642 14.5064 15.568 14.3341 15.7144C14.1618 15.8609 13.9425 15.9401 13.7164 15.9375L5.8125 15.9375V8.36937ZM4.6875 15.9375V8.8125H3C2.75136 8.8125 2.5129 8.91127 2.33709 9.08709C2.16127 9.2629 2.0625 9.50136 2.0625 9.75V15C2.0625 15.2486 2.16127 15.4871 2.33709 15.6629C2.5129 15.8387 2.75136 15.9375 3 15.9375H4.6875Z"
        fill="currentColor" />
</svg>